<svg width="20" height="20" viewBox="0 0 20 20" fill="none" xmlns="http://www.w3.org/2000/svg">
<path d="M18.8889 10C18.5926 10 18.3289 9.89333 18.0978 9.68C17.8659 9.46741 17.7315 9.2037 17.6944 8.88889C17.4537 7.16667 16.727 5.69889 15.5144 4.48556C14.3011 3.27296 12.8333 2.5463 11.1111 2.30556C10.7963 2.26852 10.5326 2.13889 10.32 1.91667C10.1067 1.69444 10 1.42593 10 1.11111C10 0.796296 10.1111 0.532222 10.3333 0.318889C10.5556 0.106296 10.8148 0.0185185 11.1111 0.0555555C13.4444 0.314815 15.4352 1.26852 17.0833 2.91667C18.7315 4.56482 19.6852 6.55556 19.9444 8.88889C19.9815 9.18519 19.8933 9.44444 19.68 9.66667C19.4674 9.88889 19.2037 10 18.8889 10ZM14.25 10C14.0093 10 13.7963 9.91667 13.6111 9.75C13.4259 9.58333 13.287 9.36111 13.1944 9.08333C13.0463 8.5463 12.7641 8.06926 12.3478 7.65222C11.9307 7.23593 11.4537 6.9537 10.9167 6.80556C10.6389 6.71296 10.4167 6.57407 10.25 6.38889C10.0833 6.2037 10 5.98148 10 5.72222C10 5.35185 10.1296 5.05074 10.3889 4.81889C10.6481 4.58778 10.9352 4.50926 11.25 4.58333C12.287 4.82407 13.1807 5.31926 13.9311 6.06889C14.6807 6.81926 15.1759 7.71296 15.4167 8.75C15.4907 9.06482 15.4074 9.35185 15.1667 9.61111C14.9259 9.87037 14.6204 10 14.25 10ZM18.8333 20C16.4444 20 14.1159 19.4674 11.8478 18.4022C9.57889 17.3378 7.56963 15.9304 5.82 14.18C4.06963 12.4304 2.66222 10.4211 1.59778 8.15222C0.532593 5.88407 0 3.55556 0 1.16667C0 0.833334 0.111111 0.555556 0.333333 0.333333C0.555556 0.111111 0.833334 0 1.16667 0H5.66667C5.92593 0 6.15741 0.0833332 6.36111 0.25C6.56482 0.416667 6.68519 0.62963 6.72222 0.888889L7.44444 4.77778C7.48148 5.03704 7.47704 5.27296 7.43111 5.48556C7.38444 5.69889 7.27778 5.88889 7.11111 6.05556L4.44444 8.77778C5.22222 10.1111 6.19444 11.3611 7.36111 12.5278C8.52778 13.6944 9.81482 14.7037 11.2222 15.5556L13.8333 12.9444C14 12.7778 14.2178 12.6526 14.4867 12.5689C14.7548 12.4859 15.0185 12.463 15.2778 12.5L19.1111 13.2778C19.3704 13.3333 19.5833 13.4581 19.75 13.6522C19.9167 13.847 20 14.0741 20 14.3333V18.8333C20 19.1667 19.8889 19.4444 19.6667 19.6667C19.4444 19.8889 19.1667 20 18.8333 20Z" fill="white"/>
</svg>
